<!-- icon666.com - MILLIONS vector ICONS FREE --><svg version="1.1" id="Layer_1" xmlns="http://www.w3.org/2000/svg" xmlns:xlink="http://www.w3.org/1999/xlink" x="0px" y="0px" viewBox="0 0 512 512" style="enable-background:new 0 0 512 512;" xml:space="preserve"><g><g><g><path d="M458.348,0H53.652C42.062,0,32.633,9.429,32.633,21.019v426.053v43.909c0,11.59,9.428,21.019,21.019,21.019h81.983 c4.465,0,8.084-3.618,8.084-8.084c0-4.466-3.62-8.084-8.084-8.084H53.652c-2.675,0-4.851-2.176-4.851-4.851v-35.825H435.02 v40.675h-6.197H161.864c-4.465,0-8.084,3.619-8.084,8.084c0,4.466,3.62,8.084,8.084,8.084h266.959h14.281h15.244 c11.59,0,21.019-9.429,21.019-21.019v-56.844V21.019C479.367,9.429,469.937,0,458.348,0z M79.871,438.988H48.802V21.019 c0-2.674,2.175-4.851,4.851-4.851h26.219V438.988z M443.103,438.988H96.039V16.168h362.307c2.675,0,4.851,2.176,4.851,4.851 v413.118c0,2.674-2.175,4.851-4.851,4.851H443.103z M463.198,490.981c0,2.674-2.175,4.851-4.851,4.851h-7.159v-40.675h7.159 c0.66,0,1.311-0.039,1.955-0.099c0.1-0.01,0.201-0.015,0.3-0.026c0.61-0.066,1.212-0.16,1.805-0.276 c0.116-0.023,0.233-0.047,0.349-0.072c0.147-0.031,0.295-0.056,0.441-0.091V490.981z"></path><path d="M421.457,475.494c0-4.466-3.618-8.084-8.084-8.084H71.68c-4.465,0-8.084,3.619-8.084,8.084 c0,4.466,3.62,8.084,8.084,8.084h341.693C417.838,483.578,421.457,479.958,421.457,475.494z"></path><polygon points="211.363,276.004 211.363,210.344 197.769,210.344 178.164,247.705 158.743,210.344 145.057,210.344 145.057,276.004 157.819,276.004 157.819,232.537 174.742,264.906 181.678,264.906 198.602,232.537 198.602,276.004 "></polygon><polygon points="237.813,247.705 265.463,247.705 265.463,237.347 237.813,237.347 237.813,221.532 269.81,221.532 269.81,210.344 225.05,210.344 225.05,276.004 270.642,276.004 270.642,264.814 237.813,264.814 "></polygon><polygon points="293.391,233.926 327.146,276.004 337.504,276.004 337.504,210.436 324.742,210.436 324.742,253.438 290.525,210.344 280.63,210.344 280.63,276.004 293.391,276.004 "></polygon><path d="M350.265,210.343v0.001v33.476c0,4.254,0.509,8.356,1.525,12.3c1.018,3.946,2.667,7.415,4.949,10.404 c2.28,2.99,5.255,5.396,8.924,7.213c3.667,1.82,8.122,2.727,13.363,2.727c5.055,0,9.401-0.862,13.039-2.589 c3.637-1.726,6.613-4.068,8.924-7.029c2.312-2.959,4.008-6.411,5.087-10.356c1.078-3.945,1.619-8.169,1.619-12.671v-33.477 h-12.67v33.478c0,2.714-0.263,5.35-0.786,7.907c-0.524,2.559-1.419,4.826-2.682,6.797c-1.264,1.975-2.929,3.576-4.994,4.81 c-2.066,1.234-4.609,1.85-7.629,1.85c-2.96,0-5.457-0.601-7.49-1.803c-2.035-1.202-3.685-2.79-4.949-4.763 c-1.264-1.973-2.159-4.238-2.681-6.797c-0.525-2.558-0.787-5.226-0.787-8v-33.477H350.265z"></path><path d="M319.121,185.736h52.208c4.466,0,8.084-3.618,8.084-8.084c0-4.466-3.619-8.084-8.084-8.084h-52.208 c-5.786,0-11.226-2.254-15.319-6.347c-2.969-2.967-4.603-6.914-4.603-11.111c0-4.198,1.634-8.145,4.603-11.113 c2.068-2.068,4.82-3.209,7.746-3.209c2.927,0,5.678,1.14,7.747,3.21c1.35,1.35,2.092,3.143,2.092,5.053s-0.743,3.705-2.092,5.053 c-3.158,3.157-3.158,8.276-0.001,11.432c3.157,3.157,8.276,3.158,11.432,0.001c4.404-4.403,6.83-10.258,6.83-16.486 c0.001-6.228-2.424-12.083-6.827-16.487c-5.123-5.123-11.934-7.944-19.18-7.944c-7.246,0-14.056,2.822-19.178,7.944 c-6.023,6.022-9.339,14.029-9.339,22.545c0,8.515,3.316,16.522,9.338,22.543C299.515,181.801,309.015,185.736,319.121,185.736z"></path><path d="M177.321,185.736h52.208c10.105,0,19.607-3.935,26.75-11.081c6.023-6.022,9.339-14.029,9.339-22.544 c0-8.516-3.316-16.523-9.338-22.544c-5.123-5.123-11.934-7.945-19.179-7.945c-7.245,0-14.056,2.821-19.18,7.944 c-4.403,4.404-6.828,10.259-6.828,16.487c0.001,6.228,2.426,12.083,6.83,16.486c3.157,3.158,8.276,3.157,11.432-0.001 c3.157-3.157,3.156-8.276-0.001-11.432c-1.349-1.349-2.093-3.144-2.093-5.053s0.743-3.704,2.092-5.053 c2.07-2.07,4.82-3.21,7.747-3.21c2.925,0,5.676,1.14,7.746,3.21c2.969,2.967,4.604,6.914,4.604,11.112 c0,4.197-1.635,8.143-4.604,11.112c-4.091,4.092-9.531,6.346-15.318,6.346h-52.208c-4.465,0-8.084,3.618-8.084,8.084 C169.235,182.12,172.857,185.736,177.321,185.736z"></path><path d="M371.328,301.071h-52.207c-10.106,0-19.606,3.935-26.75,11.081c-6.023,6.022-9.339,14.029-9.339,22.544 c0,8.516,3.316,16.523,9.338,22.544c5.123,5.123,11.933,7.945,19.179,7.945s14.057-2.821,19.18-7.944 c4.403-4.404,6.828-10.259,6.827-16.487c0-6.228-2.425-12.083-6.83-16.486c-3.158-3.158-8.277-3.157-11.432,0.001 c-3.157,3.157-3.157,8.276,0.001,11.432c1.35,1.35,2.092,3.144,2.092,5.053s-0.743,3.704-2.092,5.053 c-2.068,2.07-4.82,3.21-7.747,3.21c-2.925,0-5.677-1.14-7.746-3.21c-2.969-2.967-4.603-6.914-4.603-11.112 c0-4.197,1.634-8.143,4.603-11.112c4.092-4.092,9.532-6.346,15.318-6.346h52.208c4.466,0,8.084-3.618,8.084-8.084 C379.414,304.687,375.794,301.071,371.328,301.071z"></path><path d="M229.528,301.071H177.32c-4.465,0-8.084,3.618-8.084,8.084c0,4.466,3.62,8.084,8.084,8.084h52.208 c5.787,0,11.226,2.254,15.318,6.347c2.969,2.967,4.604,6.914,4.604,11.111c0,4.198-1.635,8.145-4.604,11.113 c-2.068,2.068-4.819,3.209-7.745,3.209c-2.926,0-5.677-1.14-7.747-3.21c-1.349-1.349-2.092-3.143-2.092-5.053 s0.744-3.705,2.093-5.053c3.157-3.157,3.158-8.276,0.001-11.432c-3.156-3.158-8.275-3.157-11.432-0.001 c-4.404,4.403-6.83,10.258-6.83,16.486s2.425,12.083,6.828,16.487c5.123,5.123,11.934,7.944,19.18,7.944 s14.057-2.822,19.178-7.944c6.023-6.022,9.339-14.029,9.339-22.545c0-8.515-3.316-16.522-9.338-22.543 C249.135,305.008,239.634,301.071,229.528,301.071z"></path><path d="M403.133,169.568h-7.006c-4.466,0-8.084,3.618-8.084,8.084c0,4.466,3.618,8.084,8.084,8.084h7.006 c4.466,0,8.084-3.618,8.084-8.084C411.217,173.186,407.598,169.568,403.133,169.568z"></path><path d="M403.133,301.071h-7.006c-4.466,0-8.084,3.618-8.084,8.084c0,4.466,3.618,8.084,8.084,8.084h7.006 c4.466,0,8.084-3.618,8.084-8.084C411.217,304.69,407.598,301.071,403.133,301.071z"></path><path d="M146.135,185.736h7.006c4.465,0,8.084-3.618,8.084-8.084c0-4.466-3.62-8.084-8.084-8.084h-7.006 c-4.465,0-8.084,3.618-8.084,8.084C138.05,182.118,141.67,185.736,146.135,185.736z"></path><path d="M153.141,301.071h-7.006c-4.465,0-8.084,3.618-8.084,8.084c0,4.466,3.62,8.084,8.084,8.084h7.006 c4.465,0,8.084-3.618,8.084-8.084C161.225,304.69,157.605,301.071,153.141,301.071z"></path></g></g></g></svg>